<svg role="img" aria-label="Token Security" viewBox="0 0 952 282" fill="none" xmlns="http://www.w3.org/2000/svg"><path fill-rule="evenodd" clip-rule="evenodd" d="M227.261 41.3744C230.927 19.4172 209.477 -3.0459 187.659 0.365911C164.944 3.91817 140.008 5.88033 113.846 5.88033C87.6848 5.88033 62.7488 3.91816 40.0332 0.365884C18.2158 -3.04594 -3.2349 19.4172 0.431042 41.3744C3.85589 61.8876 5.73785 84.2457 5.73785 107.645C5.73785 131.045 3.85588 153.403 0.431014 173.916C-3.23494 195.874 18.2158 218.337 40.0332 214.925C62.7489 211.373 87.6848 209.41 113.846 209.41C140.008 209.41 164.944 211.373 187.659 214.925C209.477 218.337 230.927 195.874 227.261 173.916C223.836 153.403 221.955 131.045 221.955 107.645C221.955 84.2457 223.836 61.8876 227.261 41.3744ZM36.7317 107.695C36.7317 68.2592 71.3659 36.2899 114.089 36.2899C156.813 36.2899 191.447 68.2592 191.447 107.695C191.447 147.131 156.813 179.101 114.089 179.101C71.3659 179.101 36.7316 147.131 36.7317 107.695Z" fill="#FFFFFF"></path><path d="M114.089 237.283C71.3659 237.283 36.7317 247.093 36.7317 259.195C36.7317 271.297 71.3659 281.108 114.089 281.108C156.813 281.108 191.447 271.297 191.447 259.195C191.447 247.093 156.813 237.283 114.089 237.283Z" fill="#FFFFFF"></path><path d="M596.365 132.447V31.2073H561.783V175.754H593L625.973 137.47L648.519 175.754H687.961L648.078 111.804L685.157 68.7519H647.958L596.365 132.447Z" fill="#FFFFFF"></path><path fill-rule="evenodd" clip-rule="evenodd" d="M752.702 178.758C739.991 178.758 728.588 176.38 718.494 171.624C708.524 166.869 700.673 160.236 694.941 151.726C689.208 143.216 686.342 133.266 686.342 121.878C686.342 110.739 689.084 100.978 694.567 92.5929C700.05 84.2079 707.59 77.6376 717.186 72.882C726.906 68.1264 737.873 65.7485 750.085 65.7485C762.547 65.7485 773.265 68.5018 782.238 74.0083C791.21 79.5149 798.127 87.2741 802.987 97.286C807.847 107.298 810.277 119.062 810.277 132.578H723.554C724.215 134.304 725.02 135.931 725.971 137.459C729.211 142.465 733.822 146.282 739.804 148.91C745.911 151.538 753.326 152.852 762.049 152.852C770.025 152.852 778 151.788 785.976 149.661C793.952 147.408 801.118 144.279 807.473 140.275V162.989C800.245 167.995 791.958 171.875 782.611 174.628C773.389 177.381 763.42 178.758 752.702 178.758ZM724.85 104.419C723.779 106.344 722.95 108.409 722.364 110.614H777.398C776.676 108.049 775.672 105.734 774.386 103.669C772.019 99.5387 768.841 96.4099 764.853 94.2824C760.865 92.0297 756.129 90.9034 750.646 90.9034C744.664 90.9034 739.493 92.0923 735.131 94.4701C730.769 96.848 727.342 100.164 724.85 104.419Z" fill="#FFFFFF"></path><path d="M822.163 68.7521H856.745L860.558 91.723C860.956 90.9972 861.367 90.2859 861.792 89.5893C866.653 81.8301 872.634 75.9481 879.738 71.9434C886.966 67.8135 894.879 65.7485 903.478 65.7485C913.697 65.7485 922.358 67.8135 929.461 71.9434C936.689 75.9481 942.173 81.705 945.911 89.2139C949.775 96.7228 951.706 105.671 951.706 116.058V175.754H916.937V121.315C916.937 112.429 914.756 105.734 910.395 101.228C906.033 96.5977 899.802 94.2824 891.701 94.2824C885.969 94.2824 880.984 95.5339 876.747 98.0369C872.634 100.415 869.394 103.856 867.026 108.362C864.783 112.742 863.662 117.998 863.662 124.13V175.754H828.893V105.17L822.163 68.7521Z" fill="#FFFFFF"></path><path fill-rule="evenodd" clip-rule="evenodd" d="M477.074 178.758C463.615 178.758 451.838 176.38 441.744 171.624C431.65 166.869 423.798 160.236 418.19 151.726C412.583 143.216 409.779 133.391 409.779 122.253C409.779 110.99 412.583 101.166 418.19 92.7806C423.798 84.2705 431.65 77.6376 441.744 72.882C451.963 68.1264 463.739 65.7485 477.074 65.7485C490.533 65.7485 502.309 68.1264 512.404 72.882C522.623 77.6376 530.536 84.2705 536.144 92.7806C541.752 101.166 544.556 110.99 544.556 122.253C544.556 133.517 541.752 143.403 536.144 151.913C530.536 160.298 522.623 166.869 512.404 171.624C502.309 176.38 490.533 178.758 477.074 178.758ZM477.074 152.477C483.928 152.477 489.723 151.288 494.458 148.91C499.319 146.407 502.995 142.903 505.487 138.397C508.104 133.892 509.413 128.511 509.413 122.253C509.413 115.996 508.104 110.614 505.487 106.109C502.995 101.604 499.319 98.162 494.458 95.7842C489.723 93.2812 483.928 92.0297 477.074 92.0297C470.469 92.0297 464.736 93.2812 459.876 95.7842C455.016 98.162 451.277 101.604 448.66 106.109C446.043 110.614 444.735 115.996 444.735 122.253C444.735 128.511 446.043 133.892 448.66 138.397C451.277 142.903 455.016 146.407 459.876 148.91C464.736 151.288 470.469 152.477 477.074 152.477Z" fill="#FFFFFF"></path><path d="M297.757 79.4525V94.658H319.815V134.831C319.815 143.716 321.498 151.475 324.862 158.108C328.352 164.616 333.71 169.685 340.938 173.314C348.291 176.943 357.638 178.758 368.978 178.758C375.458 178.758 381.689 178.132 387.671 176.881C393.778 175.629 398.7 174.253 402.439 172.751V146.282C398.825 147.909 394.961 149.223 390.849 150.224C386.861 151.1 382.188 151.538 376.829 151.538C368.48 151.538 362.685 149.974 359.445 146.845C356.204 143.591 354.584 137.959 354.584 129.95V94.658H400.569V68.7523H354.584V40.2184H334.77L319.815 71.3804L297.757 79.4525Z" fill="#FFFFFF"></path></svg>